<mxfile host="Electron" modified="2024-02-26T03:34:24.704Z" agent="Mozilla/5.0 (Windows NT 10.0; Win64; x64) AppleWebKit/537.36 (KHTML, like Gecko) draw.io/23.1.5 Chrome/120.0.6099.109 Electron/28.1.0 Safari/537.36" etag="UH6Bo7xeCbhBkiBryueE" version="23.1.5" type="device">
  <diagram name="Страница — 1" id="IklT5RCHt3ArcWWnxzrr">
    <mxGraphModel dx="1434" dy="844" grid="1" gridSize="10" guides="1" tooltips="1" connect="1" arrows="1" fold="1" page="1" pageScale="1" pageWidth="827" pageHeight="1169" math="0" shadow="0">
      <root>
        <mxCell id="0" />
        <mxCell id="1" parent="0" />
        <mxCell id="Dg7OsNJWaBvRFLr99DRb-1" value="начало" style="ellipse;whiteSpace=wrap;html=1;" parent="1" vertex="1">
          <mxGeometry x="340" width="120" height="30" as="geometry" />
        </mxCell>
        <mxCell id="Dg7OsNJWaBvRFLr99DRb-2" value="" style="endArrow=classic;html=1;rounded=0;" parent="1" edge="1">
          <mxGeometry width="50" height="50" relative="1" as="geometry">
            <mxPoint x="399.65999999999997" y="30" as="sourcePoint" />
            <mxPoint x="400" y="160" as="targetPoint" />
          </mxGeometry>
        </mxCell>
        <mxCell id="Dg7OsNJWaBvRFLr99DRb-3" value="" style="endArrow=none;html=1;rounded=0;" parent="1" edge="1">
          <mxGeometry width="50" height="50" relative="1" as="geometry">
            <mxPoint x="400" y="120" as="sourcePoint" />
            <mxPoint x="480" y="120" as="targetPoint" />
          </mxGeometry>
        </mxCell>
        <mxCell id="Dg7OsNJWaBvRFLr99DRb-4" value="&lt;div&gt;#include &amp;lt;iostream&amp;gt;&lt;/div&gt;&lt;div&gt;using namespace std;&lt;/div&gt;&lt;div&gt;int IterationsCounter = 0;&lt;/div&gt;&lt;div&gt;&lt;div&gt;int main()&amp;nbsp;&lt;span style=&quot;background-color: initial;&quot;&gt;{&lt;/span&gt;&lt;/div&gt;&lt;div&gt;&amp;nbsp; &amp;nbsp; setlocale(LC_ALL, &quot;RUS&quot;);&amp;nbsp;&lt;/div&gt;&lt;div&gt;&amp;nbsp; &amp;nbsp; srand(time(0));&amp;nbsp;&lt;/div&gt;&lt;div&gt;&amp;nbsp; &amp;nbsp; int n;&lt;br&gt;int** Board;&lt;br&gt;&lt;/div&gt;&lt;/div&gt;" style="rounded=0;whiteSpace=wrap;html=1;" parent="1" vertex="1">
          <mxGeometry x="480" y="60" width="180" height="120" as="geometry" />
        </mxCell>
        <mxCell id="3cNdYufVJE6-uV0ao60D-3" style="edgeStyle=orthogonalEdgeStyle;rounded=0;orthogonalLoop=1;jettySize=auto;html=1;entryX=0.5;entryY=0;entryDx=0;entryDy=0;" edge="1" parent="1" source="Dg7OsNJWaBvRFLr99DRb-5" target="3cNdYufVJE6-uV0ao60D-2">
          <mxGeometry relative="1" as="geometry" />
        </mxCell>
        <mxCell id="Dg7OsNJWaBvRFLr99DRb-5" value="cin &amp;gt;&amp;gt; n;" style="shape=parallelogram;perimeter=parallelogramPerimeter;whiteSpace=wrap;html=1;fixedSize=1;" parent="1" vertex="1">
          <mxGeometry x="340" y="160" width="120" height="20" as="geometry" />
        </mxCell>
        <mxCell id="Dg7OsNJWaBvRFLr99DRb-6" value="if (n &amp;lt; 4)" style="rhombus;whiteSpace=wrap;html=1;" parent="1" vertex="1">
          <mxGeometry x="360" y="270" width="80" height="40" as="geometry" />
        </mxCell>
        <mxCell id="Dg7OsNJWaBvRFLr99DRb-9" value="" style="endArrow=none;html=1;rounded=0;" parent="1" edge="1">
          <mxGeometry width="50" height="50" relative="1" as="geometry">
            <mxPoint x="440" y="289.72" as="sourcePoint" />
            <mxPoint x="520" y="289.72" as="targetPoint" />
          </mxGeometry>
        </mxCell>
        <mxCell id="Dg7OsNJWaBvRFLr99DRb-10" value="" style="endArrow=classic;html=1;rounded=0;" parent="1" edge="1">
          <mxGeometry width="50" height="50" relative="1" as="geometry">
            <mxPoint x="520" y="290" as="sourcePoint" />
            <mxPoint x="520" y="320" as="targetPoint" />
          </mxGeometry>
        </mxCell>
        <mxCell id="Dg7OsNJWaBvRFLr99DRb-13" style="edgeStyle=orthogonalEdgeStyle;rounded=0;orthogonalLoop=1;jettySize=auto;html=1;entryX=0.5;entryY=0;entryDx=0;entryDy=0;" parent="1" source="Dg7OsNJWaBvRFLr99DRb-11" target="Dg7OsNJWaBvRFLr99DRb-12" edge="1">
          <mxGeometry relative="1" as="geometry" />
        </mxCell>
        <mxCell id="Dg7OsNJWaBvRFLr99DRb-11" value="cout &amp;lt;&amp;lt; endl &amp;lt;&amp;lt; &quot;---------------------------&quot; &amp;lt;&amp;lt; endl;" style="shape=parallelogram;perimeter=parallelogramPerimeter;whiteSpace=wrap;html=1;fixedSize=1;" parent="1" vertex="1">
          <mxGeometry x="380" y="320" width="280" height="20" as="geometry" />
        </mxCell>
        <mxCell id="3cNdYufVJE6-uV0ao60D-6" style="edgeStyle=orthogonalEdgeStyle;rounded=0;orthogonalLoop=1;jettySize=auto;html=1;entryX=0.5;entryY=0;entryDx=0;entryDy=0;" edge="1" parent="1" source="Dg7OsNJWaBvRFLr99DRb-12" target="3cNdYufVJE6-uV0ao60D-5">
          <mxGeometry relative="1" as="geometry" />
        </mxCell>
        <mxCell id="Dg7OsNJWaBvRFLr99DRb-12" value="for (int row = 0; row &amp;lt; n; ++row)" style="shape=hexagon;perimeter=hexagonPerimeter2;whiteSpace=wrap;html=1;fixedSize=1;" parent="1" vertex="1">
          <mxGeometry x="430" y="384" width="180" height="30" as="geometry" />
        </mxCell>
        <mxCell id="Dg7OsNJWaBvRFLr99DRb-17" style="edgeStyle=orthogonalEdgeStyle;rounded=0;orthogonalLoop=1;jettySize=auto;html=1;entryX=0.5;entryY=0;entryDx=0;entryDy=0;" parent="1" source="Dg7OsNJWaBvRFLr99DRb-14" target="Dg7OsNJWaBvRFLr99DRb-16" edge="1">
          <mxGeometry relative="1" as="geometry" />
        </mxCell>
        <mxCell id="Dg7OsNJWaBvRFLr99DRb-14" value="for (int square = 0; square &amp;lt; n; square++)" style="shape=hexagon;perimeter=hexagonPerimeter2;whiteSpace=wrap;html=1;fixedSize=1;" parent="1" vertex="1">
          <mxGeometry x="405" y="480" width="230" height="30" as="geometry" />
        </mxCell>
        <mxCell id="Dg7OsNJWaBvRFLr99DRb-16" value="Board[row][square] = 0;" style="rounded=0;whiteSpace=wrap;html=1;" parent="1" vertex="1">
          <mxGeometry x="455" y="530" width="130" height="20" as="geometry" />
        </mxCell>
        <mxCell id="Dg7OsNJWaBvRFLr99DRb-18" value="" style="endArrow=none;html=1;rounded=0;" parent="1" edge="1">
          <mxGeometry width="50" height="50" relative="1" as="geometry">
            <mxPoint x="520" y="550" as="sourcePoint" />
            <mxPoint x="520" y="570" as="targetPoint" />
          </mxGeometry>
        </mxCell>
        <mxCell id="Dg7OsNJWaBvRFLr99DRb-19" value="" style="endArrow=none;html=1;rounded=0;" parent="1" edge="1">
          <mxGeometry width="50" height="50" relative="1" as="geometry">
            <mxPoint x="360" y="570" as="sourcePoint" />
            <mxPoint x="520" y="570" as="targetPoint" />
          </mxGeometry>
        </mxCell>
        <mxCell id="Dg7OsNJWaBvRFLr99DRb-20" value="" style="endArrow=none;html=1;rounded=0;" parent="1" edge="1">
          <mxGeometry width="50" height="50" relative="1" as="geometry">
            <mxPoint x="360" y="570" as="sourcePoint" />
            <mxPoint x="360" y="490" as="targetPoint" />
          </mxGeometry>
        </mxCell>
        <mxCell id="Dg7OsNJWaBvRFLr99DRb-21" value="" style="endArrow=classic;html=1;rounded=0;" parent="1" edge="1">
          <mxGeometry width="50" height="50" relative="1" as="geometry">
            <mxPoint x="360" y="495.1" as="sourcePoint" />
            <mxPoint x="405" y="494.76000000000005" as="targetPoint" />
          </mxGeometry>
        </mxCell>
        <mxCell id="Dg7OsNJWaBvRFLr99DRb-22" value="1" style="text;strokeColor=none;fillColor=none;align=left;verticalAlign=middle;spacingLeft=4;spacingRight=4;overflow=hidden;points=[[0,0.5],[1,0.5]];portConstraint=eastwest;rotatable=0;whiteSpace=wrap;html=1;" parent="1" vertex="1">
          <mxGeometry x="490" y="405" width="80" height="30" as="geometry" />
        </mxCell>
        <mxCell id="Dg7OsNJWaBvRFLr99DRb-24" value="{" style="text;html=1;align=center;verticalAlign=middle;whiteSpace=wrap;rounded=0;" parent="1" vertex="1">
          <mxGeometry x="522.5" y="500" width="35" height="30" as="geometry" />
        </mxCell>
        <mxCell id="Dg7OsNJWaBvRFLr99DRb-25" value="}" style="text;html=1;align=center;verticalAlign=middle;whiteSpace=wrap;rounded=0;" parent="1" vertex="1">
          <mxGeometry x="525" y="545" width="30" height="30" as="geometry" />
        </mxCell>
        <mxCell id="Dg7OsNJWaBvRFLr99DRb-26" value="" style="endArrow=none;html=1;rounded=0;" parent="1" edge="1">
          <mxGeometry width="50" height="50" relative="1" as="geometry">
            <mxPoint x="635" y="494.76" as="sourcePoint" />
            <mxPoint x="680" y="495.05" as="targetPoint" />
          </mxGeometry>
        </mxCell>
        <mxCell id="Dg7OsNJWaBvRFLr99DRb-27" value="" style="endArrow=none;html=1;rounded=0;" parent="1" edge="1">
          <mxGeometry width="50" height="50" relative="1" as="geometry">
            <mxPoint x="680" y="490" as="sourcePoint" />
            <mxPoint x="680" y="600" as="targetPoint" />
          </mxGeometry>
        </mxCell>
        <mxCell id="Dg7OsNJWaBvRFLr99DRb-28" value="" style="endArrow=none;html=1;rounded=0;" parent="1" edge="1">
          <mxGeometry width="50" height="50" relative="1" as="geometry">
            <mxPoint x="320" y="600" as="sourcePoint" />
            <mxPoint x="680" y="600" as="targetPoint" />
          </mxGeometry>
        </mxCell>
        <mxCell id="Dg7OsNJWaBvRFLr99DRb-29" value="" style="endArrow=none;html=1;rounded=0;" parent="1" edge="1">
          <mxGeometry width="50" height="50" relative="1" as="geometry">
            <mxPoint x="320" y="600" as="sourcePoint" />
            <mxPoint x="320" y="400" as="targetPoint" />
          </mxGeometry>
        </mxCell>
        <mxCell id="Dg7OsNJWaBvRFLr99DRb-30" value="" style="endArrow=classic;html=1;rounded=0;" parent="1" edge="1">
          <mxGeometry width="50" height="50" relative="1" as="geometry">
            <mxPoint x="320" y="400" as="sourcePoint" />
            <mxPoint x="430" y="398.8" as="targetPoint" />
          </mxGeometry>
        </mxCell>
        <mxCell id="Dg7OsNJWaBvRFLr99DRb-31" value="1" style="text;strokeColor=none;fillColor=none;align=left;verticalAlign=middle;spacingLeft=4;spacingRight=4;overflow=hidden;points=[[0,0.5],[1,0.5]];portConstraint=eastwest;rotatable=0;whiteSpace=wrap;html=1;" parent="1" vertex="1">
          <mxGeometry x="490" y="500" width="30" height="30" as="geometry" />
        </mxCell>
        <mxCell id="Dg7OsNJWaBvRFLr99DRb-32" value="{" style="text;html=1;align=center;verticalAlign=middle;whiteSpace=wrap;rounded=0;" parent="1" vertex="1">
          <mxGeometry x="510" y="405" width="60" height="30" as="geometry" />
        </mxCell>
        <mxCell id="Dg7OsNJWaBvRFLr99DRb-33" value="0" style="text;html=1;align=center;verticalAlign=middle;whiteSpace=wrap;rounded=0;" parent="1" vertex="1">
          <mxGeometry x="630" y="470" width="30" height="30" as="geometry" />
        </mxCell>
        <mxCell id="Dg7OsNJWaBvRFLr99DRb-34" value="}" style="text;html=1;align=center;verticalAlign=middle;whiteSpace=wrap;rounded=0;" parent="1" vertex="1">
          <mxGeometry x="670" y="500" width="40" height="30" as="geometry" />
        </mxCell>
        <mxCell id="Dg7OsNJWaBvRFLr99DRb-35" value="" style="endArrow=none;html=1;rounded=0;" parent="1" edge="1">
          <mxGeometry width="50" height="50" relative="1" as="geometry">
            <mxPoint x="610" y="398.71" as="sourcePoint" />
            <mxPoint x="960" y="399" as="targetPoint" />
          </mxGeometry>
        </mxCell>
        <mxCell id="Dg7OsNJWaBvRFLr99DRb-36" value="" style="endArrow=classic;html=1;rounded=0;" parent="1" edge="1">
          <mxGeometry width="50" height="50" relative="1" as="geometry">
            <mxPoint x="960" y="399" as="sourcePoint" />
            <mxPoint x="960" y="440" as="targetPoint" />
          </mxGeometry>
        </mxCell>
        <mxCell id="Dg7OsNJWaBvRFLr99DRb-39" style="edgeStyle=orthogonalEdgeStyle;rounded=0;orthogonalLoop=1;jettySize=auto;html=1;entryX=0.5;entryY=0;entryDx=0;entryDy=0;" parent="1" source="Dg7OsNJWaBvRFLr99DRb-37" edge="1">
          <mxGeometry relative="1" as="geometry">
            <mxPoint x="960" y="484" as="targetPoint" />
          </mxGeometry>
        </mxCell>
        <mxCell id="Dg7OsNJWaBvRFLr99DRb-37" value="PutQueens(0, n, 0);" style="shape=process;whiteSpace=wrap;html=1;backgroundOutline=1;" parent="1" vertex="1">
          <mxGeometry x="890" y="440" width="140" height="20" as="geometry" />
        </mxCell>
        <mxCell id="Dg7OsNJWaBvRFLr99DRb-87" value="" style="endArrow=none;html=1;rounded=0;" parent="1" edge="1">
          <mxGeometry width="50" height="50" relative="1" as="geometry">
            <mxPoint x="160" y="289.94" as="sourcePoint" />
            <mxPoint x="360" y="289.52" as="targetPoint" />
          </mxGeometry>
        </mxCell>
        <mxCell id="Dg7OsNJWaBvRFLr99DRb-88" value="0" style="text;html=1;align=center;verticalAlign=middle;whiteSpace=wrap;rounded=0;" parent="1" vertex="1">
          <mxGeometry x="420" y="250" width="60" height="30" as="geometry" />
        </mxCell>
        <mxCell id="Dg7OsNJWaBvRFLr99DRb-89" value="{" style="text;html=1;align=center;verticalAlign=middle;whiteSpace=wrap;rounded=0;" parent="1" vertex="1">
          <mxGeometry x="480" y="290" width="60" height="30" as="geometry" />
        </mxCell>
        <mxCell id="Dg7OsNJWaBvRFLr99DRb-91" value="}" style="text;html=1;align=center;verticalAlign=middle;whiteSpace=wrap;rounded=0;" parent="1" vertex="1">
          <mxGeometry x="950" y="634.71" width="60" height="30" as="geometry" />
        </mxCell>
        <mxCell id="Dg7OsNJWaBvRFLr99DRb-92" value="1" style="text;html=1;align=center;verticalAlign=middle;whiteSpace=wrap;rounded=0;" parent="1" vertex="1">
          <mxGeometry x="330" y="250" width="60" height="30" as="geometry" />
        </mxCell>
        <mxCell id="Dg7OsNJWaBvRFLr99DRb-94" value="" style="endArrow=classic;html=1;rounded=0;entryX=0.5;entryY=0;entryDx=0;entryDy=0;" parent="1" target="Dg7OsNJWaBvRFLr99DRb-95" edge="1">
          <mxGeometry width="50" height="50" relative="1" as="geometry">
            <mxPoint x="160" y="290" as="sourcePoint" />
            <mxPoint x="159.5" y="400" as="targetPoint" />
          </mxGeometry>
        </mxCell>
        <mxCell id="Dg7OsNJWaBvRFLr99DRb-95" value="cout &amp;lt;&amp;lt; &quot;Размер доски и кол-во королев должны быть больше или равно 4&quot; &amp;lt;&amp;lt; endl;" style="shape=parallelogram;perimeter=parallelogramPerimeter;whiteSpace=wrap;html=1;fixedSize=1;" parent="1" vertex="1">
          <mxGeometry x="30" y="435" width="260" height="75" as="geometry" />
        </mxCell>
        <mxCell id="Dg7OsNJWaBvRFLr99DRb-96" value="" style="endArrow=none;html=1;rounded=0;" parent="1" edge="1">
          <mxGeometry width="50" height="50" relative="1" as="geometry">
            <mxPoint x="160" y="880" as="sourcePoint" />
            <mxPoint x="159.5" y="510" as="targetPoint" />
          </mxGeometry>
        </mxCell>
        <mxCell id="Dg7OsNJWaBvRFLr99DRb-97" value="{" style="text;strokeColor=none;fillColor=none;align=left;verticalAlign=middle;spacingLeft=4;spacingRight=4;overflow=hidden;points=[[0,0.5],[1,0.5]];portConstraint=eastwest;rotatable=0;whiteSpace=wrap;html=1;" parent="1" vertex="1">
          <mxGeometry x="170" y="400" width="80" height="30" as="geometry" />
        </mxCell>
        <mxCell id="Dg7OsNJWaBvRFLr99DRb-98" value="}" style="text;html=1;align=center;verticalAlign=middle;whiteSpace=wrap;rounded=0;" parent="1" vertex="1">
          <mxGeometry x="150" y="510" width="60" height="30" as="geometry" />
        </mxCell>
        <mxCell id="Dg7OsNJWaBvRFLr99DRb-99" value="" style="endArrow=none;html=1;rounded=0;" parent="1" edge="1">
          <mxGeometry width="50" height="50" relative="1" as="geometry">
            <mxPoint x="160" y="880" as="sourcePoint" />
            <mxPoint x="1080" y="880" as="targetPoint" />
          </mxGeometry>
        </mxCell>
        <mxCell id="Dg7OsNJWaBvRFLr99DRb-100" value="" style="endArrow=classic;html=1;rounded=0;" parent="1" edge="1">
          <mxGeometry width="50" height="50" relative="1" as="geometry">
            <mxPoint x="600" y="870" as="sourcePoint" />
            <mxPoint x="600" y="920" as="targetPoint" />
          </mxGeometry>
        </mxCell>
        <mxCell id="Dg7OsNJWaBvRFLr99DRb-101" value="return 0:" style="ellipse;whiteSpace=wrap;html=1;" parent="1" vertex="1">
          <mxGeometry x="540" y="920" width="120" height="30" as="geometry" />
        </mxCell>
        <mxCell id="Dg7OsNJWaBvRFLr99DRb-102" value="0" style="text;html=1;align=center;verticalAlign=middle;whiteSpace=wrap;rounded=0;" parent="1" vertex="1">
          <mxGeometry x="600" y="370" width="60" height="30" as="geometry" />
        </mxCell>
        <mxCell id="Dg7OsNJWaBvRFLr99DRb-103" value="}" style="text;html=1;align=center;verticalAlign=middle;whiteSpace=wrap;rounded=0;" parent="1" vertex="1">
          <mxGeometry x="600" y="950" width="60" height="30" as="geometry" />
        </mxCell>
        <mxCell id="3cNdYufVJE6-uV0ao60D-4" style="edgeStyle=orthogonalEdgeStyle;rounded=0;orthogonalLoop=1;jettySize=auto;html=1;entryX=0.5;entryY=0;entryDx=0;entryDy=0;" edge="1" parent="1" source="3cNdYufVJE6-uV0ao60D-2" target="Dg7OsNJWaBvRFLr99DRb-6">
          <mxGeometry relative="1" as="geometry" />
        </mxCell>
        <mxCell id="3cNdYufVJE6-uV0ao60D-2" value="Board = new int*[n];" style="rounded=0;whiteSpace=wrap;html=1;" vertex="1" parent="1">
          <mxGeometry x="340" y="220" width="120" height="20" as="geometry" />
        </mxCell>
        <mxCell id="3cNdYufVJE6-uV0ao60D-9" style="edgeStyle=orthogonalEdgeStyle;rounded=0;orthogonalLoop=1;jettySize=auto;html=1;entryX=0.5;entryY=0;entryDx=0;entryDy=0;" edge="1" parent="1" source="3cNdYufVJE6-uV0ao60D-5" target="Dg7OsNJWaBvRFLr99DRb-14">
          <mxGeometry relative="1" as="geometry" />
        </mxCell>
        <mxCell id="3cNdYufVJE6-uV0ao60D-5" value="Board[row] = new int[n];" style="rounded=0;whiteSpace=wrap;html=1;" vertex="1" parent="1">
          <mxGeometry x="455" y="430" width="130" height="26" as="geometry" />
        </mxCell>
        <mxCell id="3cNdYufVJE6-uV0ao60D-13" style="edgeStyle=orthogonalEdgeStyle;rounded=0;orthogonalLoop=1;jettySize=auto;html=1;entryX=0.5;entryY=0;entryDx=0;entryDy=0;" edge="1" parent="1" source="3cNdYufVJE6-uV0ao60D-10" target="3cNdYufVJE6-uV0ao60D-12">
          <mxGeometry relative="1" as="geometry" />
        </mxCell>
        <mxCell id="3cNdYufVJE6-uV0ao60D-10" value="for (int i = 0; i &amp;lt; n; i++)" style="shape=hexagon;perimeter=hexagonPerimeter2;whiteSpace=wrap;html=1;fixedSize=1;" vertex="1" parent="1">
          <mxGeometry x="895" y="564.71" width="130" height="40" as="geometry" />
        </mxCell>
        <mxCell id="3cNdYufVJE6-uV0ao60D-12" value="delete [] Board[i];" style="rounded=0;whiteSpace=wrap;html=1;" vertex="1" parent="1">
          <mxGeometry x="900" y="624.71" width="120" height="20" as="geometry" />
        </mxCell>
        <mxCell id="3cNdYufVJE6-uV0ao60D-14" value="" style="endArrow=none;html=1;rounded=0;" edge="1" parent="1">
          <mxGeometry width="50" height="50" relative="1" as="geometry">
            <mxPoint x="960" y="664.71" as="sourcePoint" />
            <mxPoint x="959.76" y="644.71" as="targetPoint" />
          </mxGeometry>
        </mxCell>
        <mxCell id="3cNdYufVJE6-uV0ao60D-15" value="" style="endArrow=none;html=1;rounded=0;" edge="1" parent="1">
          <mxGeometry width="50" height="50" relative="1" as="geometry">
            <mxPoint x="880" y="664.71" as="sourcePoint" />
            <mxPoint x="960" y="664.71" as="targetPoint" />
          </mxGeometry>
        </mxCell>
        <mxCell id="3cNdYufVJE6-uV0ao60D-16" value="" style="endArrow=none;html=1;rounded=0;" edge="1" parent="1">
          <mxGeometry width="50" height="50" relative="1" as="geometry">
            <mxPoint x="880" y="664.71" as="sourcePoint" />
            <mxPoint x="880" y="584.71" as="targetPoint" />
          </mxGeometry>
        </mxCell>
        <mxCell id="3cNdYufVJE6-uV0ao60D-17" value="" style="endArrow=classic;html=1;rounded=0;" edge="1" parent="1">
          <mxGeometry width="50" height="50" relative="1" as="geometry">
            <mxPoint x="880" y="584.71" as="sourcePoint" />
            <mxPoint x="900" y="584.71" as="targetPoint" />
          </mxGeometry>
        </mxCell>
        <mxCell id="3cNdYufVJE6-uV0ao60D-18" value="{" style="text;html=1;align=center;verticalAlign=middle;whiteSpace=wrap;rounded=0;" vertex="1" parent="1">
          <mxGeometry x="950" y="594.71" width="60" height="30" as="geometry" />
        </mxCell>
        <mxCell id="3cNdYufVJE6-uV0ao60D-19" value="1" style="text;html=1;align=center;verticalAlign=middle;whiteSpace=wrap;rounded=0;" vertex="1" parent="1">
          <mxGeometry x="920" y="594.71" width="50" height="33" as="geometry" />
        </mxCell>
        <mxCell id="3cNdYufVJE6-uV0ao60D-20" value="" style="endArrow=none;html=1;rounded=0;" edge="1" parent="1">
          <mxGeometry width="50" height="50" relative="1" as="geometry">
            <mxPoint x="1025" y="584.71" as="sourcePoint" />
            <mxPoint x="1080" y="584.71" as="targetPoint" />
          </mxGeometry>
        </mxCell>
        <mxCell id="3cNdYufVJE6-uV0ao60D-21" value="" style="endArrow=classic;html=1;rounded=0;" edge="1" parent="1">
          <mxGeometry width="50" height="50" relative="1" as="geometry">
            <mxPoint x="1080" y="584.71" as="sourcePoint" />
            <mxPoint x="1080" y="624.71" as="targetPoint" />
          </mxGeometry>
        </mxCell>
        <mxCell id="3cNdYufVJE6-uV0ao60D-22" value="delete [] Board;" style="rounded=0;whiteSpace=wrap;html=1;" vertex="1" parent="1">
          <mxGeometry x="1038" y="624.71" width="85" height="20" as="geometry" />
        </mxCell>
        <mxCell id="3cNdYufVJE6-uV0ao60D-23" value="0" style="text;html=1;align=center;verticalAlign=middle;whiteSpace=wrap;rounded=0;" vertex="1" parent="1">
          <mxGeometry x="1010" y="555" width="60" height="30" as="geometry" />
        </mxCell>
        <mxCell id="3cNdYufVJE6-uV0ao60D-25" value="}" style="text;html=1;align=center;verticalAlign=middle;whiteSpace=wrap;rounded=0;" vertex="1" parent="1">
          <mxGeometry x="1090" y="644.71" width="40" height="30" as="geometry" />
        </mxCell>
        <mxCell id="3cNdYufVJE6-uV0ao60D-27" value="" style="endArrow=none;html=1;rounded=0;entryX=0.5;entryY=1;entryDx=0;entryDy=0;" edge="1" parent="1" target="3cNdYufVJE6-uV0ao60D-22">
          <mxGeometry width="50" height="50" relative="1" as="geometry">
            <mxPoint x="1080" y="880" as="sourcePoint" />
            <mxPoint x="1080" y="620" as="targetPoint" />
          </mxGeometry>
        </mxCell>
        <mxCell id="3cNdYufVJE6-uV0ao60D-29" style="edgeStyle=orthogonalEdgeStyle;rounded=0;orthogonalLoop=1;jettySize=auto;html=1;entryX=0.5;entryY=0;entryDx=0;entryDy=0;" edge="1" parent="1" source="3cNdYufVJE6-uV0ao60D-28" target="3cNdYufVJE6-uV0ao60D-10">
          <mxGeometry relative="1" as="geometry" />
        </mxCell>
        <mxCell id="3cNdYufVJE6-uV0ao60D-28" value="cout &amp;lt;&amp;lt; endl &amp;lt;&amp;lt; &quot;Всего потребовалось итераций: &quot; &amp;lt;&amp;lt; IterationsCounter &amp;lt;&amp;lt; endl;" style="shape=parallelogram;perimeter=parallelogramPerimeter;whiteSpace=wrap;html=1;fixedSize=1;" vertex="1" parent="1">
          <mxGeometry x="865" y="484" width="190" height="60" as="geometry" />
        </mxCell>
      </root>
    </mxGraphModel>
  </diagram>
</mxfile>
